<?xml version="1.0" encoding="UTF-8" standalone="no"?>
<svg
   xmlns:dc="http://purl.org/dc/elements/1.1/"
   xmlns:cc="http://creativecommons.org/ns#"
   xmlns:rdf="http://www.w3.org/1999/02/22-rdf-syntax-ns#"
   xmlns:svg="http://www.w3.org/2000/svg"
   xmlns="http://www.w3.org/2000/svg"
   xmlns:sodipodi="http://sodipodi.sourceforge.net/DTD/sodipodi-0.dtd"
   xmlns:inkscape="http://www.inkscape.org/namespaces/inkscape"
   version="1.1"
   id="svg2"
   xml:space="preserve"
   width="2133.3333"
   height="1600"
   viewBox="0 0 2133.3333 1600"
   sodipodi:docname="Online Shopping Payment.ai"><metadata
     id="metadata8"><rdf:RDF><cc:Work
         rdf:about=""><dc:format>image/svg+xml</dc:format><dc:type
           rdf:resource="http://purl.org/dc/dcmitype/StillImage" /></cc:Work></rdf:RDF></metadata><defs
     id="defs6"><clipPath
       clipPathUnits="userSpaceOnUse"
       id="clipPath18"><path
         d="M 0,1200 H 1600 V 0 H 0 Z"
         id="path16" /></clipPath><linearGradient
       x1="0"
       y1="0"
       x2="1"
       y2="0"
       gradientUnits="userSpaceOnUse"
       gradientTransform="matrix(-91.622269,-90.687347,-90.687347,91.622269,690.56268,540.69788)"
       spreadMethod="pad"
       id="linearGradient158"><stop
         style="stop-opacity:1;stop-color:#b4d0fc"
         offset="0"
         id="stop154" /><stop
         style="stop-opacity:1;stop-color:#86a2e2"
         offset="1"
         id="stop156" /></linearGradient><clipPath
       clipPathUnits="userSpaceOnUse"
       id="clipPath168"><path
         d="M 0,1200 H 1600 V 0 H 0 Z"
         id="path166" /></clipPath></defs><sodipodi:namedview
     pagecolor="#ffffff"
     bordercolor="#666666"
     borderopacity="1"
     objecttolerance="10"
     gridtolerance="10"
     guidetolerance="10"
     inkscape:pageopacity="0"
     inkscape:pageshadow="2"
     inkscape:window-width="640"
     inkscape:window-height="480"
     id="namedview4" /><g
     id="g10"
     inkscape:groupmode="layer"
     inkscape:label="Online Shopping Payment"
     transform="matrix(1.3333333,0,0,-1.3333333,0,1600)"><g
       id="g12"><g
         id="g14"
         clip-path="url(#clipPath18)"><g
           id="g20"
           transform="translate(1460.7852,517.7515)"><path
             d="m 0,0 c -0.013,-0.894 -0.04,-1.774 -0.067,-2.668 -1,-30.944 -4.681,-62.569 -11.297,-94.7 -0.173,-0.88 -0.36,-1.774 -0.547,-2.668 -1.627,-7.722 -3.428,-15.472 -5.402,-23.248 -0.213,-0.894 -0.44,-1.774 -0.68,-2.668 -8.03,-31.197 -18.86,-62.822 -32.665,-94.7 -0.387,-0.88 -0.774,-1.774 -1.174,-2.668 -5.148,-11.777 -10.723,-23.595 -16.725,-35.439 -26.05,-51.511 -60.035,-103.543 -102.851,-155.428 h -944.296 c 0,0 -7.296,4.148 -19.14,12.524 -2.401,1.694 -4.988,3.561 -7.736,5.602 -2.094,1.534 -4.281,3.201 -6.562,4.962 -0.694,0.533 -1.401,1.08 -2.108,1.64 -1.974,1.534 -4.001,3.135 -6.082,4.815 -9.096,7.376 -19.207,16.126 -29.81,26.29 l -2.868,2.774 c -22.288,21.714 -46.537,49.538 -68.078,83.563 -44.696,70.612 -77.761,167.98 -57.7,293.145 8.883,55.446 26.463,96.487 50.044,127.445 7.403,9.723 15.392,18.433 23.902,26.289 118.135,109.146 334.853,52.286 430.393,185.853 133.781,187.013 294.412,227.454 467.847,152.775 4.441,-1.895 8.883,-3.882 13.338,-5.949 31.238,-14.445 62.876,-32.585 94.834,-54.206 108.945,-73.733 191.374,-186.84 222.305,-320.928 1.521,-6.562 2.908,-13.178 4.175,-19.847 C -3.588,84.297 -0.493,55.18 0.094,25.342 0.28,16.953 0.253,8.496 0,0"
             style="fill:#d8b4fe;fill-opacity:1;fill-rule:nonzero;stroke:none"
             id="path22" /></g><g
           id="g24"
           transform="translate(1460.8787,543.0938)"><path
             d="m 0,0 h -228.575 c -7.362,0 -13.338,-5.962 -13.338,-13.338 v -257.425 c 0,-7.363 5.976,-13.338 13.338,-13.338 h 159.924 c 6.002,11.844 11.577,23.662 16.726,35.439 0.4,0.894 0.787,1.787 1.174,2.668 13.804,31.878 24.635,63.502 32.664,94.7 0.24,0.894 0.467,1.774 0.681,2.668 1.974,7.776 3.775,15.525 5.402,23.248 0.186,0.894 0.373,1.787 0.546,2.668 6.616,32.131 10.297,63.756 11.298,94.7 0.026,0.894 0.053,1.774 0.066,2.668 C 0.16,-16.846 0.187,-8.39 0,0"
             style="fill:#c084fc;fill-opacity:1;fill-rule:nonzero;stroke:none"
             id="path26" /></g><g
           id="g28"
           transform="translate(1252.3109,515.0838)"><path
             d="m 0,0 h 208.408 c 0.026,0.894 0.053,1.774 0.066,2.668 H 0 c -4.415,0 -8.003,-3.588 -8.003,-8.003 v -84.03 c 0,-4.415 3.588,-8.003 8.003,-8.003 h 196.563 c 0.187,0.894 0.374,1.787 0.547,2.668 L 0,-94.7 c -2.934,0 -5.335,2.401 -5.335,5.335 v 84.03 C -5.335,-2.387 -2.934,0 0,0"
             style="fill:#a855f7;fill-opacity:1;fill-rule:nonzero;stroke:none"
             id="path30" /></g><g
           id="g32"
           transform="translate(1252.3109,391.8)"><path
             d="m 0,0 h 190.481 c 0.24,0.894 0.467,1.774 0.68,2.668 H 0 c -4.415,0 -8.003,-3.588 -8.003,-8.003 v -84.03 c 0,-4.415 3.588,-8.003 8.003,-8.003 h 156.643 c 0.4,0.894 0.786,1.787 1.173,2.668 L 0,-94.7 c -2.934,0 -5.335,2.401 -5.335,5.335 v 84.03 C -5.335,-2.388 -2.934,0 0,0"
             style="fill:#a855f7;fill-opacity:1;fill-rule:nonzero;stroke:none"
             id="path34" /></g><g
           id="g36"
           transform="translate(1385.308,467.7371)"><path
             d="m 0,0 c 0,-6.048 -4.903,-10.951 -10.951,-10.951 -6.048,0 -10.951,4.903 -10.951,10.951 0,6.048 4.903,10.951 10.951,10.951 C -4.903,10.951 0,6.048 0,0"
             style="fill:#a855f7;fill-opacity:1;fill-rule:nonzero;stroke:none"
             id="path38" /></g><g
           id="g40"
           transform="translate(458.4818,692.6137)"><path
             d="m 0,0 v -26.289 h -263.44 c 7.402,9.723 15.392,18.433 23.901,26.289 z"
             style="fill:#c084fc;fill-opacity:1;fill-rule:nonzero;stroke:none"
             id="path42" /></g><g
           id="g44"
           transform="translate(376.9727,103.5641)"><path
             d="m 0,0 h -31.891 c 0,0 -10.551,6.002 -26.877,18.126 -2.094,1.534 -4.281,3.202 -6.562,4.962 -0.693,0.534 -1.4,1.081 -2.107,1.641 -1.974,1.534 -4.002,3.134 -6.083,4.815 4.442,84.19 20.034,141.797 40.802,178.557 37.053,65.596 90.552,64.756 126.458,29.97 C 200.231,134.875 0,0 0,0"
             style="fill:#9333ea;fill-opacity:1;fill-rule:nonzero;stroke:none"
             id="path46" /></g><g
           id="g48"
           transform="translate(432.4858,290.8707)"><path
             d="m 0,0 c -19.353,-34.225 -56.727,-83.776 -85.831,-120.736 -0.573,-0.721 -1.147,-1.441 -1.707,-2.148 -8.923,-11.297 -16.993,-21.341 -23.448,-29.277 -3.962,-4.868 -7.309,-8.95 -9.857,-12.057 -0.694,0.533 -1.4,1.08 -2.107,1.64 3.201,3.882 7.642,9.297 12.978,15.899 5.895,7.269 12.857,15.952 20.447,25.556 0.347,0.44 0.693,0.88 1.04,1.334 29.144,36.946 66.771,86.791 86.164,121.096 0.36,0.64 1.174,0.867 1.814,0.507 C 0.133,1.454 0.36,0.64 0,0"
             style="fill:#d8b4fe;fill-opacity:1;fill-rule:nonzero;stroke:none"
             id="path50" /></g><g
           id="g52"
           transform="translate(371.53,162.1631)"><path
             d="m 0,0 c -8.385,0 -18.085,1.551 -27.85,6.433 -0.659,0.33 -0.926,1.131 -0.596,1.79 0.33,0.659 1.128,0.923 1.789,0.597 C -1.546,-3.737 23.883,7.036 24.136,7.144 24.812,7.441 25.597,7.129 25.891,6.453 26.184,5.777 25.874,4.991 25.199,4.698 24.519,4.403 14.125,0 0,0"
             style="fill:#d8b4fe;fill-opacity:1;fill-rule:nonzero;stroke:none"
             id="path54" /></g><g
           id="g56"
           transform="translate(390.7855,230.4648)"><path
             d="m 0,0 c -0.394,0 -0.784,0.173 -1.047,0.507 -22.786,28.842 -14.972,52.858 -14.628,53.867 0.238,0.696 0.996,1.068 1.69,0.832 0.697,-0.236 1.071,-0.994 0.835,-1.691 -0.019,-0.058 -1.965,-5.96 -1.189,-15.191 0.717,-8.52 3.967,-21.711 15.385,-36.163 C 1.503,1.583 1.404,0.744 0.826,0.287 0.582,0.094 0.29,0 0,0"
             style="fill:#d8b4fe;fill-opacity:1;fill-rule:nonzero;stroke:none"
             id="path58" /></g><g
           id="g60"
           transform="translate(344.2545,311.6648)"><path
             d="m 0,0 c -4.388,-65.383 -14.485,-128.272 -21.741,-167.473 -0.334,-1.881 -0.68,-3.708 -1.014,-5.482 -1.214,-6.469 -2.334,-12.191 -3.294,-17.019 -2.094,1.534 -4.282,3.201 -6.563,4.961 -0.693,0.534 -1.4,1.081 -2.107,1.641 -1.974,1.534 -4.001,3.134 -6.082,4.815 -9.097,7.376 -19.207,16.126 -29.811,26.289 l -2.868,2.775 c -22.287,21.714 -46.536,49.537 -68.077,83.563 -32.972,135.808 -58.087,320.447 49.004,320.447 C -3.601,254.517 8.283,122.857 0,0"
             style="fill:#a855f7;fill-opacity:1;fill-rule:nonzero;stroke:none"
             id="path62" /></g><g
           id="g64"
           transform="translate(273.6427,159.3972)"><path
             d="m 0,0 c -1.814,26.223 -4.202,60.662 -6.802,97.635 -0.067,0.893 -0.134,1.787 -0.201,2.681 v 0.013 c -2.467,35.239 -5.121,72.653 -7.642,107.345 v 0.053 c -3.935,54.38 -7.523,102.09 -9.524,124.365 -0.066,0.72 -0.72,1.267 -1.453,1.2 -0.734,-0.067 -1.268,-0.707 -1.201,-1.441 1.961,-21.887 5.455,-68.344 9.31,-121.563 v -0.013 c 0.093,-1.107 0.173,-2.228 0.254,-3.348 2.534,-34.999 5.215,-72.746 7.709,-108.212 2.534,-36.079 4.882,-69.811 6.682,-95.941 z"
             style="fill:#9333ea;fill-opacity:1;fill-rule:nonzero;stroke:none"
             id="path66" /></g><g
           id="g68"
           transform="translate(257.6646,365.7538)"><path
             d="m 0,0 c -0.245,0 -0.493,0.068 -0.715,0.208 -31.25,19.905 -46.654,41.988 -46.806,42.208 -0.417,0.607 -0.264,1.437 0.342,1.855 0.606,0.419 1.437,0.266 1.856,-0.341 C -45.174,43.713 -30.045,22.052 0.718,2.459 1.339,2.063 1.522,1.239 1.126,0.617 0.872,0.218 0.441,0 0,0"
             style="fill:#9333ea;fill-opacity:1;fill-rule:nonzero;stroke:none"
             id="path70" /></g><g
           id="g72"
           transform="translate(265.4284,256.7697)"><path
             d="m 0,0 c -0.638,0 -1.201,0.457 -1.313,1.107 -0.126,0.726 0.361,1.416 1.087,1.541 24.338,4.206 45.127,44.08 45.334,44.482 0.339,0.654 1.141,0.914 1.797,0.574 0.655,-0.336 0.913,-1.141 0.575,-1.796 C 47.427,45.805 42.074,35.468 33.681,24.743 22.307,10.208 11.052,1.89 0.229,0.02 0.152,0.007 0.075,0 0,0"
             style="fill:#9333ea;fill-opacity:1;fill-rule:nonzero;stroke:none"
             id="path74" /></g><g
           id="g76"
           transform="translate(1389.9606,103.5641)"><path
             d="m 0,0 h -568.768 v 319.426 c 0,11.045 8.954,20 20,20 H -20 c 11.046,0 20,-8.955 20,-20 z"
             style="fill:#9333ea;fill-opacity:1;fill-rule:nonzero;stroke:none"
             id="path78" /></g><g
           id="g80"
           transform="translate(879.0739,268.8495)"><path
             d="M 0,0 C 0,0 48.927,-24.675 226.502,-24.675 404.077,-24.675 453.004,0 453.004,0 V -40.459 H -1.317 Z"
             style="fill:#7e22ce;fill-opacity:1;fill-rule:nonzero;stroke:none"
             id="path82" /></g><g
           id="g84"
           transform="translate(1446.5092,103.5641)"><path
             d="m 0,0 h -113.097 v 190.715 c 0,8.836 7.163,16 16,16 H -16 c 8.837,0 16,-7.164 16,-16 z"
             style="fill:#7e22ce;fill-opacity:1;fill-rule:nonzero;stroke:none"
             id="path86" /></g><g
           id="g88"
           transform="translate(1334.7452,103.5641)"><path
             d="m 0,0 h -2.668 v 185.373 c 0,12.503 10.172,22.675 22.675,22.675 H 55.215 V 205.38 H 20.007 C 8.974,205.38 0,196.406 0,185.373 Z"
             style="fill:#6b21a8;fill-opacity:1;fill-rule:nonzero;stroke:none"
             id="path90" /></g><g
           id="g92"
           transform="translate(877.7407,103.5641)"><path
             d="m 0,0 h -113.097 v 190.715 c 0,8.836 7.163,16 16,16 H -16 c 8.837,0 16,-7.164 16,-16 z"
             style="fill:#7489c4;fill-opacity:1;fill-rule:nonzero;stroke:none"
             id="path94" /></g><path
           d="M 1333.412,225.723 H 877.757 v 2.668 h 455.655 z"
           style="fill:#6b21a8;fill-opacity:1;fill-rule:nonzero;stroke:none"
           id="path96" /><g
           id="g98"
           transform="translate(879.0739,103.5641)"><path
             d="m 0,0 h -2.668 v 185.373 c 0,11.033 -8.974,20.007 -20.007,20.007 h -35.206 v 2.668 h 35.206 C -10.172,208.048 0,197.876 0,185.373 Z"
             style="fill:#4a4f97;fill-opacity:1;fill-rule:nonzero;stroke:none"
             id="path100" /></g><g
           id="g102"
           transform="translate(947.6658,502.0627)"><path
             d="m 0,0 c -33.99,28.385 -45.463,71.145 -35.071,130.724 9.43,54.07 35.856,113.283 57.825,158.828 15.499,32.133 32.027,78.949 22.743,119.499 -5.506,24.048 -17.613,34.523 -17.736,34.626 l 1.725,2.036 C 30.009,445.269 42.394,434.552 48.097,409.646 57.553,368.343 40.841,320.91 25.156,288.393 3.263,243.004 -23.069,184.011 -32.444,130.265 -42.656,71.708 -31.485,29.768 1.709,2.048 Z"
             style="fill:#5f0c3d;fill-opacity:1;fill-rule:nonzero;stroke:none"
             id="path104" /></g><g
           id="g106"
           transform="translate(729.2013,735.3223)"><path
             d="m 0,0 -0.107,-0.36 -14.698,-51.992 -15.713,-55.58 -0.293,-1.013 -91.379,-323.089 -30.091,15.579 -14.472,7.496 -91.739,47.51 c 0,0 0.667,103.677 5.842,159.51 9.283,100.049 54.66,175.209 203.686,196.964 5.308,0.787 10.75,1.48 16.326,2.121 3.934,0.453 7.922,0.867 11.991,1.253 C -13.952,-0.974 -7.069,-0.44 0,0"
             style="fill:#9333ea;fill-opacity:1;fill-rule:nonzero;stroke:none"
             id="path108" /></g><g
           id="g110"
           transform="translate(470.708,373.8694)"><path
             d="m 0,0 c 0,0 56.533,5.242 109.027,-28.993 0,0 16.849,-214.635 -63.234,-214.635 -64.219,0 -94.573,47.157 -132.922,211.392 l 61.823,44.332 24.954,-64.195 z"
             style="fill:#ffba6e;fill-opacity:1;fill-rule:nonzero;stroke:none"
             id="path112" /></g><g
           id="g114"
           transform="translate(542.9683,408.3992)"><path
             d="m 0,0 1.64,-4.029 -6.309,-6.266 -4.126,5.418 z"
             style="fill:#3f0628;fill-opacity:1;fill-rule:nonzero;stroke:none"
             id="path116" /></g><g
           id="g118"
           transform="translate(1084.2877,379.9824)"><path
             d="m 0,0 c 0,0 -61.315,23.582 -140.05,-16.259 l 3.748,-260.159 h -380.162 c 0,0 11.951,103.717 9.243,209.821 -0.04,1.827 -0.093,3.655 -0.146,5.482 -0.2,6.602 -0.454,13.205 -0.774,19.78 -0.133,2.615 -0.333,5.175 -0.613,7.736 -4.175,38.374 -24.062,74.947 -24.062,211.236 0,73.359 22.661,128.272 92.219,154.588 20.367,7.709 35.546,12.938 48.911,16.486 4.215,1.12 8.243,2.081 12.204,2.881 8.11,1.667 15.899,2.721 24.289,3.388 19.367,1.547 41.921,1.013 78.828,1 0,0 34.386,0 78.588,-10.617 5.308,-1.267 10.75,-2.694 16.299,-4.295 C -112.827,321.274 -29.05,275.205 -11.004,168.007 3.081,84.377 0,0 0,0"
             style="fill:#a855f7;fill-opacity:1;fill-rule:nonzero;stroke:none"
             id="path120" /></g><g
           id="g122"
           transform="translate(977.0654,496.9307)"><path
             d="m 0,0 c 0,0 -181.729,-38.014 -209.2,118.192 l 21.024,15.189 C -188.176,133.381 -148.384,4.143 0,0"
             style="fill:#c92d52;fill-opacity:1;fill-rule:nonzero;stroke:none"
             id="path124" /></g><g
           id="g126"
           transform="translate(576.4182,346.9782)"><path
             d="M 0,0 C 5.345,15.173 87.678,251.199 31.584,234.092 -26.371,216.418 -54.957,177.962 -61.627,125.499 -68.296,73.036 -78.979,26.223 -78.979,26.223 -58.444,24.139 -28.811,17.84 0,0"
             style="fill:#7e22ce;fill-opacity:1;fill-rule:nonzero;stroke:none"
             id="path128" /></g><g
           id="g130"
           transform="translate(742.2167,456.7873)"><path
             d="m 0,0 c 0,-70.508 -48.872,-127.666 -109.158,-127.666 -60.286,0 -109.158,57.158 -109.158,127.666 0,70.508 48.872,127.666 109.158,127.666 C -48.872,127.666 0,70.508 0,0"
             style="fill:#9333ea;fill-opacity:1;fill-rule:nonzero;stroke:none"
             id="path132" /></g><g
           id="g134"
           transform="translate(940.8322,458.9172)"><path
             d="m 0,0 -0.056,-0.062 c 0.009,-0.689 0.022,-1.376 0.022,-2.068 0,-70.124 -48.343,-127.034 -108.177,-127.652 l 111.61,-98.966 v 133.557 z"
             style="fill:#7e22ce;fill-opacity:1;fill-rule:nonzero;stroke:none"
             id="path136" /></g><g
           id="g138"
           transform="translate(717.1437,524.5139)"><path
             d="m 0,0 v -87.538 c 0,-4.415 -3.588,-8.003 -8.003,-8.003 h -143.798 c -4.428,0 -8.003,3.588 -8.003,8.003 V 0 c 0,4.415 3.575,8.003 8.003,8.003 H -8.003 C -3.588,8.003 0,4.415 0,0"
             style="fill:#86a2e2;fill-opacity:1;fill-rule:nonzero;stroke:none"
             id="path140" /></g></g></g><g
       id="g142"><g
         id="g144"><g
           id="g150"><g
             id="g152"><path
               d="m 578.321,532.516 c 4.334,-46.176 43.215,-82.309 90.526,-82.309 v 0 c 17.739,0 34.305,5.082 48.296,13.885 v 0 60.422 c 0,4.415 -3.587,8.002 -8.002,8.002 v 0 z"
               style="fill:url(#linearGradient158);stroke:none"
               id="path160" /></g></g></g></g><g
       id="g162"><g
         id="g164"
         clip-path="url(#clipPath168)"><path
           d="M 717.145,488.973 H 557.336 v 24.2 h 159.809 z"
           style="fill:#4a4f97;fill-opacity:1;fill-rule:nonzero;stroke:none"
           id="path170" /><g
           id="g172"
           transform="translate(886.5106,725.3453)"><path
             d="m 0,0 c -12.031,-31.211 -56.18,-124.097 -150.747,-109.266 -15.072,2.361 -27.423,5.896 -37.373,10.297 -57.861,25.556 -34.746,80.362 6.415,105.198 1.241,0.747 2.481,1.467 3.748,2.147 6.696,0.627 13.579,1.161 20.648,1.601 l -0.107,-0.36 c 19.367,1.547 41.922,1.013 78.828,1 0,0 2.388,0 6.722,-0.2 10.084,-0.453 30.678,-1.961 56.1,-6.962 V 3.441 C -10.684,2.441 -5.415,1.307 0,0"
             style="fill:#ffba6e;fill-opacity:1;fill-rule:nonzero;stroke:none"
             id="path174" /></g><g
           id="g176"
           transform="translate(777.3453,376.425)"><path
             d="m 0,0 c -8.291,-35.534 -51.064,-26.63 -67.868,-15.127 -16.804,11.504 -41.647,9.037 -53.997,12.193 -10.32,2.631 -6.367,14.128 -3.115,20.704 1.358,2.759 2.593,4.655 2.593,4.655 -3.654,9.821 -1.815,16.81 0.864,21.284 2.567,4.299 5.892,6.292 5.892,6.292 l -16.191,-1.267 c -0.807,-0.064 -1.612,-0.039 -2.398,0.063 -4.477,0.583 -8.297,3.756 -9.602,8.229 -1.739,5.968 1.545,12.25 7.452,14.217 l 2.954,0.983 c 0,0 0.021,0.007 0.073,0.02 l 0.177,0.057 c 0.042,0.015 0.084,0.029 0.135,0.043 l 19.143,6.383 -13.558,-0.99 c -0.767,-0.06 -1.522,-0.032 -2.258,0.064 -5.086,0.662 -9.182,4.79 -9.63,10.09 -0.497,6.076 3.974,11.425 10.037,11.983 18.778,1.739 56.229,4.721 67.677,2.002 15.495,-3.685 44.597,-28.102 44.597,-28.102 C -7.741,63.242 8.291,35.534 0,0"
             style="fill:#ffba6e;fill-opacity:1;fill-rule:nonzero;stroke:none"
             id="path178" /></g><g
           id="g180"
           transform="translate(708.7758,427.4578)"><path
             d="m 0,0 c 0,0 -18.028,0.26 -30.158,-1.565 -8.983,-1.357 -17.398,-2.877 -22.795,-5.759 2.566,4.299 5.891,6.292 5.891,6.292 0,0 27.535,5.731 47.062,1.032"
             style="fill:#f27e5a;fill-opacity:1;fill-rule:nonzero;stroke:none"
             id="path182" /></g><g
           id="g184"
           transform="translate(710.4404,394.4616)"><path
             d="m 0,0 c -0.983,0.428 -28.124,12.139 -58.075,-0.267 1.358,2.759 2.593,4.655 2.593,4.655 0,0 34.159,9.521 55.482,-4.388"
             style="fill:#f27e5a;fill-opacity:1;fill-rule:nonzero;stroke:none"
             id="path186" /></g><g
           id="g188"
           transform="translate(705.5142,456.0888)"><path
             d="m 0,0 c -37.64,-0.601 -58.831,-6.608 -61.335,-7.361 l 19.278,6.427 C -23.323,2.078 0,0 0,0"
             style="fill:#f27e5a;fill-opacity:1;fill-rule:nonzero;stroke:none"
             id="path190" /></g><g
           id="g192"
           transform="translate(1049.6487,150.8742)"><path
             d="m 0,0 c -32.104,-53.864 -91.259,-80.482 -170.727,28.45 -46.124,63.236 -94.647,123.644 -128.006,164.099 -2.201,2.667 -4.335,5.241 -6.376,7.722 h -0.013 c -21.848,26.356 -35.746,42.455 -35.746,42.455 l 51.538,56.607 c 0,0 125.712,-104.023 183.919,-165.352 0,0 0.427,48.697 0,78.868 0,0 64.063,41.175 140.05,16.259 C 34.639,229.108 36.933,61.965 0,0"
             style="fill:#ffba6e;fill-opacity:1;fill-rule:nonzero;stroke:none"
             id="path194" /></g><g
           id="g196"
           transform="translate(856.9135,808.4683)"><path
             d="m 0,0 c -86.804,-11.431 -163.311,204.393 -163.311,204.393 0,0 15.192,47.27 59.821,70.718 1.187,0.614 2.387,1.227 3.628,1.814 22.008,10.537 50.778,15.232 87.858,6.416 C 153.388,243.994 86.804,11.431 0,0"
             style="fill:#5f0c3d;fill-opacity:1;fill-rule:nonzero;stroke:none"
             id="path198" /></g><g
           id="g200"
           transform="translate(870.745,728.7999)"><path
             d="m 0,0 v -0.013 c -0.187,-0.56 -0.373,-1.107 -0.573,-1.654 -31.318,-90.739 -131.994,-123.204 -175.53,-91.74 -9.616,6.963 -15.645,14.366 -18.846,22.075 -0.12,0.253 -0.214,0.507 -0.294,0.747 -2.241,5.709 -3.001,11.537 -2.627,17.326 2.254,35.453 56.326,59.781 56.326,59.781 l -8.549,32.052 v 0.013 l -3.922,14.685 c 0,0 2.028,2.014 5.522,5.349 14.912,14.178 56.58,52.138 81.763,58.581 12.137,3.121 20.46,-1.107 20.087,-18.847 -0.094,-4.908 8.576,-8.856 9.03,-13.618 0.133,-1.387 0.266,-2.761 0.426,-4.108 1.134,-10.031 2.895,-18.94 5.056,-26.823 C -21.154,13.538 0,0 0,0"
             style="fill:#ffba6e;fill-opacity:1;fill-rule:nonzero;stroke:none"
             id="path202" /></g><g
           id="g204"
           transform="translate(886.5106,725.3453)"><path
             d="m 0,0 c 0,0 -6.216,0.56 -16.339,1.787 -13.418,1.628 -33.705,4.415 -55.527,8.63 -34.545,6.669 -72.932,16.886 -93.993,31.611 v 0.014 h -0.013 c 0,0 -0.014,0 -0.014,0.013 -10.203,7.149 -8.083,13.992 1.628,20.021 19.393,12.004 69.064,20.713 111.306,22.007 10.644,0.32 20.821,0.174 29.904,-0.52 C -29.864,73.826 -38.054,64.81 -47.897,57.26 -36.92,16.993 -15.766,3.455 -15.766,3.455 V 3.441 C -10.684,2.441 -5.415,1.307 0,0"
             style="fill:#f27e5a;fill-opacity:1;fill-rule:nonzero;stroke:none"
             id="path206" /></g><g
           id="g208"
           transform="translate(894.6602,892.0847)"><path
             d="m 0,0 c -3.588,-22.208 -11.884,-55.58 -31.198,-83.176 -6.816,-9.737 -15.005,-18.754 -24.849,-26.303 -24.835,-19.06 -60.181,-28.784 -110.492,-17.206 -2.575,0.587 -5.069,1.254 -7.47,1.987 h -0.013 c 0,0 -0.013,0 -0.013,0.014 -118.202,35.879 -32.519,233.816 -32.519,233.816 C -186,158.843 -140.29,186.32 -75.147,159.87 -10.017,133.434 10.831,66.997 0,0"
             style="fill:#ffba6e;fill-opacity:1;fill-rule:nonzero;stroke:none"
             id="path210" /></g><g
           id="g212"
           transform="translate(769.2609,952.9995)"><path
             d="m 0,0 c 0.508,-0.184 1.069,-0.247 1.642,-0.159 23.069,3.559 39.309,-13.02 39.471,-13.188 1.273,-1.323 3.383,-1.371 4.712,-0.1 1.329,1.272 1.379,3.376 0.11,4.707 C 45.183,-7.951 27.208,10.534 0.625,6.432 -1.196,6.152 -2.443,4.449 -2.162,2.628 -1.97,1.381 -1.109,0.402 0,0"
             style="fill:#5f0c3d;fill-opacity:1;fill-rule:nonzero;stroke:none"
             id="path214" /></g><g
           id="g216"
           transform="translate(698.2607,970.9239)"><path
             d="m 0,0 c 0.619,-0.224 1.31,-0.268 1.995,-0.085 19.342,5.167 32.613,-8.333 32.744,-8.47 1.278,-1.327 3.388,-1.367 4.715,-0.091 1.327,1.277 1.368,3.388 0.091,4.715 C 38.895,-3.255 23.375,12.532 0.273,6.357 -1.507,5.882 -2.563,4.054 -2.088,2.275 -1.795,1.18 -0.99,0.359 0,0"
             style="fill:#5f0c3d;fill-opacity:1;fill-rule:nonzero;stroke:none"
             id="path218" /></g><g
           id="g220"
           transform="translate(773.5895,916.0922)"><path
             d="m 0,0 c -2.059,-6.753 -0.375,-13.249 3.762,-14.51 4.136,-1.261 9.158,3.19 11.217,9.943 2.059,6.753 0.374,13.249 -3.762,14.51 C 7.081,11.204 2.059,6.753 0,0"
             style="fill:#5f0c3d;fill-opacity:1;fill-rule:nonzero;stroke:none"
             id="path222" /></g><g
           id="g224"
           transform="translate(700.2186,934.7623)"><path
             d="m 0,0 c -2.051,-6.755 -0.36,-13.249 3.778,-14.506 4.138,-1.256 9.155,3.201 11.206,9.956 2.051,6.755 0.36,13.249 -3.778,14.506 C 7.068,11.212 2.051,6.755 0,0"
             style="fill:#5f0c3d;fill-opacity:1;fill-rule:nonzero;stroke:none"
             id="path226" /></g><g
           id="g228"
           transform="translate(703.0872,841.981)"><path
             d="m 0,0 c -0.014,-0.548 -0.031,-1.181 -0.01,-1.869 0.184,-5.443 2.105,-14.822 12.146,-20.9 3.239,-1.983 7.332,-3.608 12.486,-4.653 12.147,-2.458 19.853,-0.143 24.722,3.469 3.777,2.789 5.836,6.355 6.939,9.048 0.307,0.769 0.544,1.463 0.716,2.053 0.305,1.039 -0.41,2.079 -1.479,2.182 C 48.296,-10.01 22.426,-7.133 2.397,1.486 1.291,1.958 0.04,1.206 0,0"
             style="fill:#75194b;fill-opacity:1;fill-rule:nonzero;stroke:none"
             id="path230" /></g><g
           id="g232"
           transform="translate(703.0872,841.981)"><path
             d="m 0,0 c -0.014,-0.548 -0.031,-1.181 -0.01,-1.869 23.438,-12.21 48.486,-13.087 56.293,-13.036 0.307,0.769 0.544,1.463 0.716,2.053 0.305,1.039 -0.41,2.079 -1.479,2.182 C 48.296,-10.01 22.426,-7.133 2.397,1.486 1.291,1.958 0.04,1.206 0,0"
             style="fill:#ffffff;fill-opacity:1;fill-rule:nonzero;stroke:none"
             id="path234" /></g><g
           id="g236"
           transform="translate(715.2228,819.2116)"><path
             d="M 0,0 C 3.24,-1.983 7.332,-3.607 12.487,-4.652 24.634,-7.11 32.339,-4.795 37.209,-1.183 30.788,2.435 15.045,9.26 0,0"
             style="fill:#ea4352;fill-opacity:1;fill-rule:nonzero;stroke:none"
             id="path238" /></g><g
           id="g240"
           transform="translate(724.0787,869.1888)"><path
             d="M 0,0 C 2.733,-0.99 6.037,-1.247 9.777,0.054 10.821,0.417 11.373,1.557 11.01,2.601 10.645,3.645 9.504,4.197 8.463,3.833 2.15,1.638 -1.988,5.405 -3.582,7.289 l 13.636,21.832 c 0.586,0.937 0.301,2.171 -0.637,2.756 -0.933,0.582 -2.171,0.3 -2.757,-0.637 L -7.701,8.248 C -8.105,7.6 -8.106,6.778 -7.702,6.129 -6.452,4.127 -3.768,1.365 0,0"
             style="fill:#f27e5a;fill-opacity:1;fill-rule:nonzero;stroke:none"
             id="path242" /></g><g
           id="g244"
           transform="translate(904.8772,924.0294)"><path
             d="m 0,0 c -0.04,-0.854 -0.08,-1.707 -0.12,-2.534 -0.614,-11.084 -2.414,-20.047 -4.935,-25.316 -10.23,-21.341 -25.569,-13.111 -25.569,-13.111 0,0 -0.681,14.725 5.055,35.186 0.4,1.413 0.827,2.841 1.28,4.308 0,0 -1.574,-0.107 -4.188,-0.067 -12.924,0.094 -51.258,3.295 -50.831,37.534 0.667,52.752 -14.672,94.54 -52.019,84.763 0,0 30.344,40.348 89.365,-7.669 C -8.39,85.791 1.294,33.999 0,0"
             style="fill:#5f0c3d;fill-opacity:1;fill-rule:nonzero;stroke:none"
             id="path246" /></g><g
           id="g248"
           transform="translate(868.0427,884.9766)"><path
             d="m 0,0 c -8.898,-17.043 -4.477,-36.934 9.876,-44.428 14.352,-7.493 33.201,0.248 42.1,17.29 C 60.874,-10.095 56.453,9.796 42.1,17.29 27.747,24.784 8.898,17.043 0,0"
             style="fill:#ffba6e;fill-opacity:1;fill-rule:nonzero;stroke:none"
             id="path250" /></g><g
           id="g252"
           transform="translate(773.5504,1044.7924)"><path
             d="m 0,0 c 0,0 -18.425,21.674 -39.723,0 -21.299,-21.674 -43.307,-98.035 -92.657,-47.017 0,0 24.88,-4.001 31.613,26.01 6.734,30.01 50.082,97.368 104.954,42.681 0,0 41.327,3.964 48.358,-8.466 C 59.577,0.778 23.564,16.562 0,0"
             style="fill:#5f0c3d;fill-opacity:1;fill-rule:nonzero;stroke:none"
             id="path254" /></g><g
           id="g256"
           transform="translate(777.7253,1066.4935)"><path
             d="m 0,0 c -0.4,0.587 -6.896,9.95 -24.302,17.086 1.187,0.614 2.388,1.227 3.628,1.814 C -15.259,15.139 -3.241,6.336 0,0"
             style="fill:#3f0628;fill-opacity:1;fill-rule:nonzero;stroke:none"
             id="path258" /></g><g
           id="g260"
           transform="translate(876.4003,922.4955)"><path
             d="M 0,0 C 1.267,0.027 2.668,0.053 4.188,0.067 4.188,0.067 2.614,-0.04 0,0"
             style="fill:#000000;fill-opacity:1;fill-rule:nonzero;stroke:none"
             id="path262" /></g><g
           id="g264"
           transform="translate(934.2743,928.4177)"><path
             d="m 0,0 c -10.124,-3.108 -20.274,-5.335 -29.517,-6.922 -9.937,-1.708 -18.82,-2.695 -25.449,-3.242 0.4,1.414 0.827,2.841 1.28,4.309 8.23,0.053 16.633,0.666 24.289,1.467 C -12.938,-2.654 0,0 0,0"
             style="fill:#3f0628;fill-opacity:1;fill-rule:nonzero;stroke:none"
             id="path266" /></g><g
           id="g268"
           transform="translate(934.2743,928.4177)"><path
             d="m 0,0 c 0,0 -50.351,0.333 -53.686,28.677 -3.334,28.343 -8.003,92.033 -52.018,95.034 0,0 42.348,-1.001 46.35,-95.034 0,0 -2.335,-31.845 59.354,-28.677"
             style="fill:#3f0628;fill-opacity:1;fill-rule:nonzero;stroke:none"
             id="path270" /></g><g
           id="g272"
           transform="translate(850.5323,948.6299)"><path
             d="m 0,0 c -37.211,-0.002 -39.446,21.553 -42.748,53.33 -0.373,3.584 -0.76,7.309 -1.213,11.164 -1.547,13.155 -6.027,22.385 -13.313,27.43 -9.013,6.241 -19.285,3.8 -19.388,3.775 l -0.64,2.59 c 0.466,0.115 11.553,2.749 21.547,-4.172 7.942,-5.5 12.802,-15.362 14.443,-29.312 0.455,-3.866 0.843,-7.604 1.217,-11.2 C -36.651,20.472 -34.587,0.468 6.303,2.86 L 6.459,0.197 C 4.198,0.065 2.044,0 0,0"
             style="fill:#5f0c3d;fill-opacity:1;fill-rule:nonzero;stroke:none"
             id="path274" /></g><g
           id="g276"
           transform="translate(809.5632,545.6147)"><path
             d="M 0,0 C 0,0 -94.957,83.373 -6.669,171.839 103.592,282.323 179.064,364.13 128.046,393.014 l 3.779,39.584 c 0,0 93.144,-37.568 31.344,-159.512 C 122.825,193.478 19.007,-1.556 167.502,-48.684 167.502,-48.684 84.467,-74.026 0,0"
             style="fill:#5f0c3d;fill-opacity:1;fill-rule:nonzero;stroke:none"
             id="path278" /></g><g
           id="g280"
           transform="translate(952.6236,972.0271)"><path
             d="m 0,0 c -0.577,4.847 -4.425,6.764 -7.171,7.482 2.006,-17.541 1.209,-35.623 -1.836,-53.172 3.188,-0.527 5.048,0.573 5.581,2.081 C 1.88,-28.604 1.102,-9.264 0,0"
             style="fill:#7489c4;fill-opacity:1;fill-rule:nonzero;stroke:none"
             id="path282" /></g><g
           id="g284"
           transform="translate(365.5662,608.3306)"><path
             d="M 0,0 6.877,6.886 18.568,-2.139 6.397,-7.196 Z"
             style="fill:#3f0628;fill-opacity:1;fill-rule:nonzero;stroke:none"
             id="path286" /></g><g
           id="g288"
           transform="translate(535.97,401.0864)"><path
             d="m 0,0 -82.452,6.983 c -8.324,0.705 -15.472,6.201 -18.29,14.066 l -65.17,182.056 c -2.68,7.478 3.459,15.157 11.343,14.191 l 84.024,-10.299 c 8.005,-0.981 14.773,-6.391 17.494,-13.983 L 10.945,14.232 C 13.566,6.918 7.742,-0.656 0,0"
             style="fill:#3f0628;fill-opacity:1;fill-rule:nonzero;stroke:none"
             id="path290" /></g><g
           id="g292"
           transform="translate(538.2994,398.1043)"><path
             d="M 0,0 6.309,6.266 2.224,10.823 -3.251,6.933 Z"
             style="fill:#3f0628;fill-opacity:1;fill-rule:nonzero;stroke:none"
             id="path294" /></g><g
           id="g296"
           transform="translate(529.301,394.4174)"><path
             d="m 0,0 -82.452,6.983 c -8.324,0.705 -15.472,6.201 -18.29,14.066 l -65.17,182.056 c -2.68,7.478 3.459,15.157 11.343,14.191 l 84.024,-10.299 c 8.005,-0.981 14.773,-6.391 17.493,-13.983 L 10.945,14.232 C 13.566,6.918 7.742,-0.656 0,0"
             style="fill:#75194b;fill-opacity:1;fill-rule:nonzero;stroke:none"
             id="path298" /></g><g
           id="g300"
           transform="translate(383.5849,341.6337)"><path
             d="m 0,0 c 0,0 -21.977,108.185 -15.512,161.453 4.001,32.969 11.485,49.267 11.485,49.267 l 12.793,-35.739 1.91,-27.052 57.556,67.103 c 4.187,4.914 11.651,5.279 16.296,0.797 4.108,-3.963 4.587,-10.379 1.112,-14.908 l -42.577,-55.495 65.785,31.098 c 4.971,2.231 10.775,0.11 13.041,-4.845 l 0.036,-0.078 c 2.171,-4.689 0.355,-10.259 -4.164,-12.766 l -66.117,-37.018 0.989,-1.977 61.571,27.364 c 4.928,2.158 10.661,-0.232 12.597,-5.252 l 0.011,-0.029 c 1.717,-4.453 -0.171,-9.458 -4.385,-11.701 L 61.41,97.36 l 1.482,-2.306 45.893,20.27 c 4.236,1.871 9.184,-0.071 11.017,-4.323 V 111 c 1.639,-3.801 0.241,-8.227 -3.286,-10.394 -12.55,-7.713 -40.996,-25.039 -53.167,-31.197 0,0 2.946,-9.996 -1.532,-25.077 z"
             style="fill:#ffba6e;fill-opacity:1;fill-rule:nonzero;stroke:none"
             id="path302" /></g><g
           id="g304"
           transform="translate(692.1881,322.2018)"><path
             d="m 0,0 c -36.786,-15.099 -82.909,-13.125 -115.121,-8.816 -0.04,1.827 -0.093,3.654 -0.147,5.481 -0.2,6.603 -0.453,13.205 -0.773,19.781 -0.134,2.614 -0.334,5.175 -0.614,7.736 l 0.881,0.6 C -65.81,-10.137 0,0 0,0"
             style="fill:#7e22ce;fill-opacity:1;fill-rule:nonzero;stroke:none"
             id="path306" /></g><g
           id="g308"
           transform="translate(944.2314,284.8552)"><path
             d="m 0,0 c 0,0 28.056,-28.01 38.06,-40.681 0,0 -19.1,33.012 -38.06,57.687 z"
             style="fill:#f27e5a;fill-opacity:1;fill-rule:nonzero;stroke:none"
             id="path310" /></g><g
           id="g312"
           transform="translate(470.3565,321.77)"><path
             d="m 0,0 38.811,-87.599 c 0,0 -25.187,69.541 -38.458,107.463 z"
             style="fill:#f27e5a;fill-opacity:1;fill-rule:nonzero;stroke:none"
             id="path314" /></g><g
           id="g316"
           transform="translate(887.9245,878.9)"><path
             d="m 0,0 c 0,0 4.668,8.559 14.505,7.836 10.445,-0.767 8.003,-10.587 8.003,-10.587 0,0 0.083,8.503 -9.587,7.628 C 2.846,3.965 0,-8.753 0,-8.753 0,-8.753 -2.418,-4.46 0,0"
             style="fill:#f27e5a;fill-opacity:1;fill-rule:nonzero;stroke:none"
             id="path318" /></g><g
           id="g320"
           transform="translate(944.2314,363.7262)"><path
             d="m 0,0 c 0,0 66.838,32.84 140.041,5.355 0.06,6.929 0.017,10.902 0.017,10.902 C 64.069,41.172 0,0 0,0"
             style="fill:#f27e5a;fill-opacity:1;fill-rule:nonzero;stroke:none"
             id="path322" /></g><g
           id="g324"
           transform="translate(783.3939,362.723)"><path
             d="m 0,0 c -9.23,-9.337 -23.795,-15.939 -32.478,-19.3 -2.201,2.667 -4.335,5.242 -6.376,7.723 C -18.02,-11.978 0,0 0,0"
             style="fill:#f27e5a;fill-opacity:1;fill-rule:nonzero;stroke:none"
             id="path326" /></g><g
           id="g328"
           transform="translate(392.8768,590.5665)"><path
             d="m 0,0 c 0.945,-4.917 -2.203,-8.537 -7.032,-8.086 -4.828,0.451 -9.509,4.802 -10.453,9.719 -0.945,4.917 2.203,8.537 7.031,8.086 C -5.625,9.268 -0.945,4.917 0,0"
             style="fill:#f8f3cd;fill-opacity:1;fill-rule:nonzero;stroke:none"
             id="path330" /></g><g
           id="g332"
           transform="translate(391.1591,590.727)"><path
             d="m 0,0 c 0.759,-3.951 -1.77,-6.86 -5.65,-6.497 -3.88,0.362 -7.641,3.859 -8.4,7.809 -0.759,3.951 1.77,6.86 5.65,6.498 C -4.52,7.447 -0.759,3.951 0,0"
             style="fill:#3f0628;fill-opacity:1;fill-rule:nonzero;stroke:none"
             id="path334" /></g><g
           id="g336"
           transform="translate(1447.6606,650.1586)"><path
             d="m 0,0 c -30.931,134.088 -113.361,247.195 -222.306,320.928 -31.958,21.621 -63.596,39.76 -94.834,54.206 -4.454,2.067 -8.896,4.054 -13.338,5.948 V -19.847 H 4.175 C 2.908,-13.178 1.521,-6.562 0,0"
             style="fill:#c084fc;fill-opacity:1;fill-rule:nonzero;stroke:none"
             id="path338" /></g><g
           id="g340"
           transform="translate(1447.6606,650.1586)"><path
             d="m 0,0 v -6.509 h -317.14 v 381.643 c 31.238,-14.446 62.876,-32.585 94.834,-54.206 6.949,-4.709 13.792,-9.577 20.527,-14.592 12.018,-8.963 23.675,-18.433 34.933,-28.384 13.738,-12.124 26.889,-24.955 39.361,-38.44 19.767,-21.354 37.853,-44.336 53.992,-68.758 C -39.628,119.549 -14.299,62.009 0,0"
             style="fill:#e9d5ff;fill-opacity:1;fill-rule:nonzero;stroke:none"
             id="path342" /></g><g
           id="g344"
           transform="translate(1374.1678,820.9127)"><path
             d="M 0,0 -119.416,-177.263 H -219.732 L -53.993,68.758 C -34.226,47.404 -16.139,24.422 0,0"
             style="fill:#f3e8ff;fill-opacity:1;fill-rule:nonzero;stroke:none"
             id="path346" /></g><g
           id="g348"
           transform="translate(1280.8146,928.1109)"><path
             d="m 0,0 -150.294,-223.119 v 80.255 L -34.932,28.383 C -22.915,19.42 -11.257,9.95 0,0"
             style="fill:#f3e8ff;fill-opacity:1;fill-rule:nonzero;stroke:none"
             id="path350" /></g><g
           id="g352"
           transform="translate(507.7233,932.4872)"><path
             d="m 0,0 c 0,-40.675 -32.974,-73.649 -73.649,-73.649 -40.675,0 -73.649,32.974 -73.649,73.649 0,40.675 32.974,73.649 73.649,73.649 C -32.974,73.649 0,40.675 0,0"
             style="fill:#c084fc;fill-opacity:1;fill-rule:nonzero;stroke:none"
             id="path354" /></g><g
           id="g356"
           transform="translate(428.9756,906.1924)"><path
             d="m 0,0 c -2.117,0 -4.154,0.839 -5.658,2.344 l -19.911,19.911 c -3.125,3.125 -3.125,8.192 0,11.317 3.125,3.125 8.193,3.125 11.318,0 L -0.576,19.897 23.928,49.671 c 2.808,3.414 7.852,3.904 11.265,1.094 3.413,-2.808 3.903,-7.851 1.094,-11.264 L 6.18,2.918 C 4.746,1.175 2.642,0.119 0.388,0.009 0.259,0.003 0.129,0 0,0"
             style="fill:#ffffff;fill-opacity:1;fill-rule:nonzero;stroke:none"
             id="path358" /></g></g></g></g></svg>
