<svg width="195" height="134" viewBox="0 0 195 134" fill="none" xmlns="http://www.w3.org/2000/svg">
<path d="M65.1148 46.3018L88.6298 59.4589C91.6485 61.1481 93.4507 64.1746 93.4507 67.5545C93.4507 70.9344 91.6485 73.961 88.6298 75.6501L65.1148 88.8072C62.0936 90.498 58.4883 90.4946 55.4697 88.798C52.4622 87.1072 50.6661 84.084 50.6661 80.7116L50.6661 54.3974C50.6661 51.025 52.4622 48.0018 55.4697 46.311C56.9816 45.461 58.6408 45.0364 60.3009 45.0364C61.954 45.0364 63.6072 45.4577 65.1148 46.3018Z" fill="#5A49CA"/>
<path d="M28.3358 46.3018L4.82085 59.4589C1.80222 61.1481 0 64.1746 0 67.5545C0 70.9344 1.80222 73.961 4.82085 75.6501L28.3358 88.8072C31.3571 90.498 34.9624 90.4946 37.981 88.798C40.9884 87.1072 42.7846 84.084 42.7846 80.7116V54.3974C42.7846 51.025 40.9884 48.0018 37.981 46.311C36.4691 45.461 34.8099 45.0364 33.1498 45.0364C31.4966 45.0364 29.8434 45.4577 28.3358 46.3018Z" fill="#5A49CA"/>
<path d="M166.447 46.3018L189.962 59.4589C192.98 61.1481 194.783 64.1746 194.783 67.5545C194.783 70.9344 192.98 73.961 189.962 75.6501L166.447 88.8072C163.426 90.498 159.82 90.4946 156.802 88.798C153.794 87.1072 151.998 84.084 151.998 80.7116V54.3974C151.998 51.025 153.794 48.0018 156.802 46.311C158.313 45.461 159.973 45.0364 161.633 45.0364C163.286 45.0364 164.939 45.4577 166.447 46.3018Z" fill="#5A49CA"/>
<path d="M129.668 46.3018L106.153 59.4589C103.134 61.1481 101.332 64.1746 101.332 67.5545C101.332 70.9344 103.134 73.961 106.153 75.6501L129.668 88.8072C132.689 90.498 136.294 90.4946 139.313 88.798C142.32 87.1072 144.117 84.084 144.117 80.7116V54.3974C144.117 51.025 142.32 48.0018 139.313 46.311C137.801 45.461 136.142 45.0364 134.482 45.0364C132.829 45.0364 131.175 45.4577 129.668 46.3018Z" fill="#5A49CA"/>
<path d="M79.0019 43.7711L55.4869 30.614C52.4683 28.9248 50.666 25.8983 50.666 22.5184C50.666 19.1385 52.4683 16.1119 55.4869 14.4228L79.0019 1.2657C82.0231 -0.425103 85.6284 -0.421753 88.647 1.27491C91.6545 2.96571 93.4507 5.98889 93.4507 9.36128V35.6755C93.4507 39.0479 91.6545 42.071 88.647 43.7618C87.1351 44.6119 85.4759 45.0364 83.8158 45.0364C82.1627 45.0364 80.5095 44.6152 79.0019 43.7711Z" fill="#5A49CA"/>
<path d="M79.0019 132.718L55.4869 119.561C52.4683 117.871 50.6661 114.845 50.666 111.465C50.666 108.085 52.4683 105.059 55.4869 103.369L79.0019 90.2123C82.0231 88.5215 85.6284 88.5248 88.647 90.2215C91.6545 91.9123 93.4507 94.9355 93.4507 98.3079L93.4507 124.622C93.4507 127.994 91.6545 131.018 88.647 132.708C87.1351 133.558 85.4759 133.983 83.8159 133.983C82.1627 133.983 80.5095 133.562 79.0019 132.718Z" fill="#5A49CA"/>
<path d="M115.781 43.7711L139.296 30.614C142.314 28.9248 144.117 25.8983 144.117 22.5184C144.117 19.1385 142.314 16.1119 139.296 14.4228L115.781 1.2657C112.759 -0.425104 109.154 -0.421754 106.136 1.27491C103.128 2.96571 101.332 5.98889 101.332 9.36128V35.6755C101.332 39.0479 103.128 42.071 106.136 43.7618C107.647 44.6119 109.307 45.0364 110.967 45.0364C112.62 45.0364 114.273 44.6152 115.781 43.7711Z" fill="#5A49CA"/>
<path d="M115.781 132.718L139.296 119.561C142.314 117.871 144.117 114.845 144.117 111.465C144.117 108.085 142.314 105.059 139.296 103.369L115.781 90.2123C112.759 88.5215 109.154 88.5248 106.136 90.2215C103.128 91.9123 101.332 94.9355 101.332 98.3079V124.622C101.332 127.994 103.128 131.018 106.136 132.708C107.647 133.558 109.307 133.983 110.967 133.983C112.62 133.983 114.273 133.562 115.781 132.718Z" fill="#5A49CA"/>
</svg>
