<svg width="374" height="348" viewBox="0 0 374 348" fill="none" xmlns="http://www.w3.org/2000/svg">
<path d="M91.2882 228.332L233.862 267.138C252.165 272.119 271.051 267.135 284.379 253.807C297.708 240.478 302.692 221.593 297.711 203.29L258.904 60.7158C253.92 42.3964 240.002 28.505 221.669 23.5536C203.403 18.6224 184.554 23.6166 171.255 36.9153L67.4876 140.683C54.1889 153.981 49.1947 172.83 54.126 191.097C56.605 200.28 61.3298 208.353 67.7322 214.755C74.1081 221.131 82.145 225.846 91.2882 228.332Z" fill="#6153BB"/>
<path d="M60.7146 233.727L203.289 272.534C221.592 277.515 240.477 272.531 253.806 259.202C267.134 245.874 272.118 226.988 267.137 208.686L228.33 66.1113C223.346 47.7919 209.428 33.9005 191.096 28.9491C172.829 24.0179 153.98 29.0121 140.682 42.3108L36.9141 146.078C23.6154 159.377 18.6211 178.226 23.5524 196.492C26.0314 205.675 30.7562 213.749 37.1587 220.151C43.5345 226.527 51.5714 231.242 60.7146 233.727Z" fill="#FFAB7C"/>
</svg>
