<svg width="640" height="939" viewBox="0 0 640 939" fill="none" xmlns="http://www.w3.org/2000/svg">
<path d="M418.829 313.903L355.981 427.263C347.912 441.815 333.456 450.503 317.311 450.503C301.166 450.503 286.709 441.815 278.64 427.263L215.793 313.903C207.716 299.339 207.732 281.958 215.837 267.406C223.913 252.908 238.354 244.249 254.463 244.249L380.158 244.249C396.267 244.249 410.708 252.908 418.785 267.406C422.845 274.695 424.873 282.693 424.873 290.696C424.873 298.666 422.861 306.635 418.829 313.903Z" fill="#7262DB"/>
<path d="M418.829 136.6L355.981 23.2402C347.912 8.68805 333.456 -1.33995e-05 317.311 -1.41052e-05C301.166 -1.48109e-05 286.709 8.68805 278.64 23.2401L215.793 136.6C207.716 151.165 207.732 168.545 215.837 183.097C223.913 197.595 238.354 206.254 254.463 206.254L380.158 206.254C396.267 206.254 410.708 197.595 418.785 183.097C422.845 175.809 424.873 167.81 424.873 159.807C424.873 151.838 422.861 143.868 418.829 136.6Z" fill="#7262DB"/>
<path d="M418.829 802.4L355.981 915.76C347.912 930.312 333.456 939 317.311 939C301.166 939 286.709 930.312 278.64 915.76L215.793 802.4C207.716 787.835 207.732 770.455 215.837 755.903C223.913 741.405 238.354 732.746 254.463 732.746L380.158 732.746C396.267 732.746 410.708 741.405 418.785 755.903C422.845 763.191 424.873 771.19 424.873 779.193C424.873 787.162 422.861 795.132 418.829 802.4Z" fill="#7262DB"/>
<path d="M418.829 625.097L355.981 511.737C347.912 497.185 333.456 488.497 317.311 488.497C301.166 488.497 286.709 497.185 278.64 511.737L215.793 625.097C207.716 639.662 207.732 657.042 215.837 671.594C223.913 686.092 238.354 694.751 254.463 694.751L380.158 694.751C396.267 694.751 410.708 686.092 418.785 671.594C422.845 664.306 424.873 656.307 424.873 648.304C424.873 640.335 422.861 632.365 418.829 625.097Z" fill="#7262DB"/>
<path d="M430.918 380.849L493.766 267.489C501.834 252.937 516.291 244.249 532.436 244.249C548.581 244.249 563.038 252.937 571.106 267.489L633.954 380.849C642.031 395.414 642.015 412.794 633.91 427.346C625.834 441.844 611.393 450.503 595.284 450.503L469.588 450.503C453.479 450.503 439.038 441.844 430.962 427.346C426.902 420.058 424.874 412.059 424.874 404.056C424.874 396.087 426.886 388.117 430.918 380.849Z" fill="#7262DB"/>
<path d="M6.04439 380.849L68.8921 267.489C76.9606 252.937 91.4175 244.249 107.562 244.249C123.707 244.249 138.164 252.937 146.233 267.489L209.08 380.849C217.157 395.414 217.141 412.794 209.036 427.346C200.96 441.844 186.519 450.503 170.41 450.503L44.7147 450.503C28.6057 450.503 14.1649 441.844 6.08842 427.346C2.02818 420.058 4.76479e-05 412.059 4.73045e-05 404.056C4.69625e-05 396.087 2.01216 388.117 6.04439 380.849Z" fill="#7262DB"/>
<path d="M430.918 558.151L493.766 671.511C501.834 686.063 516.291 694.751 532.436 694.751C548.581 694.751 563.038 686.063 571.106 671.511L633.954 558.151C642.031 543.586 642.015 526.206 633.91 511.654C625.834 497.156 611.393 488.497 595.284 488.497L469.588 488.497C453.479 488.497 439.039 497.156 430.962 511.654C426.902 518.943 424.874 526.941 424.874 534.944C424.874 542.914 426.886 550.883 430.918 558.151Z" fill="#7262DB"/>
<path d="M6.04439 558.151L68.8921 671.511C76.9606 686.063 91.4175 694.751 107.562 694.751C123.707 694.751 138.164 686.063 146.233 671.511L209.08 558.151C217.157 543.586 217.141 526.206 209.037 511.654C200.96 497.156 186.519 488.497 170.41 488.497L44.7147 488.497C28.6057 488.497 14.1649 497.156 6.08842 511.654C2.02818 518.943 4.1933e-05 526.941 4.15832e-05 534.944C4.12348e-05 542.914 2.01215 550.883 6.04439 558.151Z" fill="#7262DB"/>
</svg>
