<svg width="204" height="64" viewBox="0 0 204 64" fill="none" xmlns="http://www.w3.org/2000/svg">
<path d="M85 19.7584H95.2196C98.0009 19.7584 100.042 20.3146 101.344 21.427C102.671 22.514 103.334 24.2837 103.334 26.736C103.334 28.0506 103.117 29.1376 102.683 29.9972C102.25 30.8567 101.51 31.6152 100.463 32.2725C101.612 32.7275 102.454 33.4228 102.99 34.3581C103.551 35.2935 103.832 36.5197 103.832 38.0365C103.832 40.5646 103.104 42.448 101.65 43.6868C100.195 44.9256 98.103 45.5449 95.3727 45.5449H85V19.7584ZM94.9899 30.3764C96.9803 30.3764 97.9754 29.3525 97.9754 27.3048C97.9754 25.257 96.9675 24.2331 94.9517 24.2331H90.282V30.3764H94.9899ZM95.1048 41.0702C96.253 41.0702 97.0951 40.8427 97.6309 40.3876C98.1923 39.9073 98.473 39.111 98.473 37.9986C98.473 36.8862 98.2051 36.0772 97.6692 35.5716C97.1334 35.0407 96.2785 34.7753 95.1048 34.7753H90.282V41.0702H95.1048Z" fill="#11142D"/>
<path d="M115.486 46C112.603 46 110.408 45.1404 108.903 43.4213C107.423 41.677 106.683 39.2121 106.683 36.0267C106.683 32.8666 107.423 30.427 108.903 28.7079C110.408 26.9888 112.603 26.1292 115.486 26.1292C118.37 26.1292 120.551 26.9888 122.031 28.7079C123.537 30.427 124.29 32.8666 124.29 36.0267C124.29 39.2121 123.537 41.677 122.031 43.4213C120.551 45.1404 118.37 46 115.486 46ZM115.486 41.677C116.711 41.677 117.617 41.2346 118.204 40.3497C118.791 39.4649 119.084 38.0239 119.084 36.0267C119.084 34.0295 118.791 32.6011 118.204 31.7416C117.617 30.882 116.711 30.4522 115.486 30.4522C114.261 30.4522 113.356 30.882 112.769 31.7416C112.182 32.6011 111.888 34.0295 111.888 36.0267C111.888 38.0239 112.182 39.4649 112.769 40.3497C113.356 41.2346 114.261 41.677 115.486 41.677Z" fill="#11142D"/>
<path d="M135.857 46C132.974 46 130.78 45.1404 129.274 43.4213C127.794 41.677 127.054 39.2121 127.054 36.0267C127.054 32.8666 127.794 30.427 129.274 28.7079C130.78 26.9888 132.974 26.1292 135.857 26.1292C138.741 26.1292 140.923 26.9888 142.403 28.7079C143.908 30.427 144.661 32.8666 144.661 36.0267C144.661 39.2121 143.908 41.677 142.403 43.4213C140.923 45.1404 138.741 46 135.857 46ZM135.857 41.677C137.082 41.677 137.988 41.2346 138.575 40.3497C139.162 39.4649 139.455 38.0239 139.455 36.0267C139.455 34.0295 139.162 32.6011 138.575 31.7416C137.988 30.882 137.082 30.4522 135.857 30.4522C134.633 30.4522 133.727 30.882 133.14 31.7416C132.553 32.6011 132.26 34.0295 132.26 36.0267C132.26 38.0239 132.553 39.4649 133.14 40.3497C133.727 41.2346 134.633 41.677 135.857 41.677Z" fill="#11142D"/>
<path d="M148.421 19H153.549V34.0927L155.502 33.7514L159.291 26.5843H165.032L160.056 35.5716L165.3 45.5449H159.52L155.655 38.1503L153.549 38.4916V45.5449H148.421V19Z" fill="#11142D"/>
<path d="M175.591 46C172.707 46 170.513 45.1404 169.007 43.4213C167.527 41.677 166.787 39.2121 166.787 36.0267C166.787 32.8666 167.527 30.427 169.007 28.7079C170.513 26.9888 172.707 26.1292 175.591 26.1292C178.474 26.1292 180.656 26.9888 182.136 28.7079C183.641 30.427 184.394 32.8666 184.394 36.0267C184.394 39.2121 183.641 41.677 182.136 43.4213C180.656 45.1404 178.474 46 175.591 46ZM175.591 41.677C176.816 41.677 177.722 41.2346 178.308 40.3497C178.895 39.4649 179.189 38.0239 179.189 36.0267C179.189 34.0295 178.895 32.6011 178.308 31.7416C177.722 30.882 176.816 30.4522 175.591 30.4522C174.366 30.4522 173.46 30.882 172.873 31.7416C172.286 32.6011 171.993 34.0295 171.993 36.0267C171.993 38.0239 172.286 39.4649 172.873 40.3497C173.46 41.2346 174.366 41.677 175.591 41.677Z" fill="#11142D"/>
<path d="M195.656 46C192.67 46 190.514 45.2542 189.187 43.7626C187.86 42.2711 187.197 39.8567 187.197 36.5197C187.197 33.0309 187.886 30.427 189.264 28.7079C190.667 26.9888 192.836 26.1292 195.771 26.1292C198.476 26.1292 200.517 26.8497 201.895 28.2907C203.298 29.7065 204 31.8427 204 34.6994L203.617 38.2261H192.364C192.415 39.111 192.568 39.7935 192.824 40.2739C193.104 40.7289 193.538 41.0576 194.125 41.2598C194.737 41.4368 195.579 41.5253 196.651 41.5253C197.493 41.5253 198.501 41.5 199.675 41.4494C200.849 41.3989 201.703 41.3483 202.239 41.2978L203.311 41.184L203.388 44.9382C200.504 45.6461 197.927 46 195.656 46ZM198.948 34.3581C198.948 32.8413 198.705 31.7921 198.22 31.2107C197.761 30.6039 196.932 30.3006 195.732 30.3006C194.508 30.3006 193.64 30.6166 193.13 31.2486C192.619 31.8553 192.351 32.8919 192.326 34.3581H198.948Z" fill="#11142D"/>
<rect width="64" height="64" rx="14" fill="#6C5DD3"/>
<path d="M51.3203 45.4414H47.8658C48.0446 44.8673 48.0725 44.2384 47.9134 43.6128L46.6477 38.7217C46.4158 37.8254 45.5018 37.2854 44.6045 37.5157L39.096 38.9274L35.3088 24.0346L39.2157 23.0409L41.5575 32.25C41.7861 33.1492 42.7008 33.6928 43.5993 33.4638C44.4986 33.2351 45.0418 32.3211 44.8132 31.4219L40.8364 15.7828C40.6153 14.9134 40.0684 14.1818 39.2971 13.7232C38.5258 13.2649 37.6227 13.1337 36.7523 13.3551L33.1797 14.2635V13.3594C33.1797 11.5071 31.6726 10 29.8203 10H25.7891C23.9368 10 22.4297 11.5071 22.4297 13.3594V16.7188H18.3984C16.5462 16.7188 15.0391 18.2259 15.0391 20.0781V45.4414H11.6797C10.7519 45.4414 10 46.1933 10 47.1211C10 48.0489 10.7519 48.8008 11.6797 48.8008H13.3594V51.3203C13.3594 52.2481 14.1113 53 15.0391 53C15.9668 53 16.7188 52.2481 16.7188 51.3203V48.8008H46.2812V51.3203C46.2812 52.2481 47.0332 53 47.9609 53C48.8887 53 49.6406 52.2481 49.6406 51.3203V48.8008H51.3203C52.2481 48.8008 53 48.0489 53 47.1211C53 46.1933 52.2481 45.4414 51.3203 45.4414ZM33.1797 29.2928L37.2861 45.4414H33.1797V29.2928ZM43.8152 41.1858L44.6593 44.4474L40.7524 45.4411L39.924 42.1827L43.8152 41.1858ZM37.5803 16.6108L38.3877 19.7852L34.4808 20.7789L33.6738 17.6042L37.5803 16.6108ZM22.4297 20.0781V23.3535H18.3984V20.0781H22.4297ZM18.3984 26.7129H22.4297V45.4414H18.3984V26.7129ZM25.7891 45.4414V13.3594H29.8203V45.4414H25.7891Z" fill="white"/>
</svg>
